<svg width="33" height="22" viewBox="0 0 33 22" fill="none" xmlns="http://www.w3.org/2000/svg">
<path d="M9.71136 0C10.6932 0 11.5895 0.0899537 12.4002 0.267985C13.2108 0.446017 13.903 0.738363 14.4805 1.14502C15.058 1.55169 15.5061 2.0914 15.8249 2.76605C16.1437 3.4407 16.3022 4.27276 16.3022 5.26411C16.3022 6.33418 16.0654 7.22621 15.5936 7.94021C15.1217 8.65421 14.4222 9.2389 13.4986 9.69429C14.7702 10.071 15.7193 10.7306 16.3459 11.6714C16.9726 12.6121 17.2859 13.7478 17.2859 15.0765C17.2859 16.1465 17.0837 17.0742 16.6793 17.8575C16.2749 18.6408 15.7302 19.2799 15.0452 19.7746C14.3603 20.2712 13.5806 20.6367 12.7044 20.8747C11.8227 21.1127 10.9137 21.2326 10.0028 21.2307H0V0H9.71136ZM9.13389 8.59237C9.94272 8.59237 10.6076 8.39372 11.1286 7.9983C11.6496 7.60101 11.9101 6.95822 11.9083 6.06619C11.9083 5.57145 11.8209 5.16479 11.6478 4.84808C11.4747 4.53137 11.2434 4.28213 10.9537 4.1041C10.6641 3.92607 10.3326 3.80238 9.95729 3.73304C9.5711 3.6637 9.17943 3.6281 8.78595 3.62997H4.53962V8.59612L9.13389 8.59237ZM9.39439 17.6008C9.82249 17.6026 10.2488 17.5577 10.6659 17.4677C11.0703 17.3778 11.4274 17.2297 11.7352 17.0217C12.0431 16.8137 12.289 16.5307 12.473 16.1746C12.6552 15.8186 12.7481 15.3613 12.7481 14.8066C12.7481 13.7178 12.4493 12.9382 11.8518 12.4735C11.2543 12.0068 10.4637 11.7744 9.48183 11.7744H4.53962V17.6026L9.39439 17.6008ZM22.995 17.1548C23.6108 17.7694 24.4979 18.0768 25.6547 18.0768C26.4836 18.0768 27.1958 17.8631 27.7933 17.4377C28.3909 17.0123 28.757 16.5607 28.8918 16.0847H32.5042C31.9267 17.9287 31.0396 19.2462 29.8446 20.0389C28.6495 20.8316 27.2049 21.2289 25.509 21.2289C24.334 21.2289 23.2738 21.0358 22.3301 20.6498C21.3865 20.2637 20.5868 19.7128 19.931 18.9988C19.2752 18.2848 18.7687 17.434 18.4135 16.4426C18.0583 15.4513 17.8798 14.3606 17.8798 13.1725C17.8798 12.0237 18.0619 10.9536 18.4281 9.96227C18.7943 8.97092 19.3153 8.11449 19.9893 7.39112C20.6633 6.66775 21.4685 6.09805 22.403 5.68202C23.3375 5.26599 24.3741 5.05797 25.5108 5.05797C26.7823 5.05797 27.8899 5.31096 28.8353 5.81695C29.779 6.32293 30.555 7.00133 31.1616 7.854C31.7682 8.70668 32.2073 9.67742 32.4769 10.7681C32.7465 11.8588 32.843 12.9982 32.7665 14.1882H21.9858C22.0423 15.5506 22.3793 16.5419 22.995 17.1548ZM27.6349 9.06837C27.143 8.51366 26.3961 8.2363 25.3942 8.2363C24.7384 8.2363 24.1937 8.35062 23.762 8.57738C23.3284 8.80601 22.9823 9.08711 22.7218 9.42443C22.4613 9.76175 22.2791 10.1178 22.1735 10.4945C22.0678 10.8712 22.004 11.2085 21.9858 11.5046H28.6623C28.4674 10.4364 28.1249 9.62308 27.6349 9.06837ZM21.2827 1.07756H29.6241V3.45756H21.2827V1.07756Z" fill="white"/>
</svg>
