<svg width="24" height="20" viewBox="0 0 24 20" fill="none" xmlns="http://www.w3.org/2000/svg">
<path fill-rule="evenodd" clip-rule="evenodd" d="M21.6 0H2.4C1.42781 0 0.585805 0.58584 0.20958 1.42193C0.336596 1.44908 0.460387 1.50159 0.573487 1.58076L12 9.57933L23.4266 1.58076C23.5396 1.5016 23.6634 1.4491 23.7904 1.42194C23.4142 0.585844 22.5722 0 21.6 0ZM24 3.62066L12.5735 11.6192C12.2292 11.8602 11.7709 11.8602 11.4266 11.6192L0 3.62063V16.8C0 18.12 1.08 19.2 2.4 19.2H21.6C22.92 19.2 24 18.12 24 16.8V3.62066Z" fill="#F3F3F3"/>
</svg>
