<svg width="14" height="23" viewBox="0 0 14 23" fill="none" xmlns="http://www.w3.org/2000/svg">
<path fill-rule="evenodd" clip-rule="evenodd" d="M5.11965 1.81848C6.23672 0.655735 7.75462 0 9.34017 0H12.3997C12.8763 0 13.2626 0.396056 13.2626 0.884615V5.13077C13.2626 5.61933 12.8763 6.01538 12.3997 6.01538H9.34017C9.30285 6.01538 9.26434 6.03069 9.23387 6.06241C9.20295 6.09459 9.18327 6.14106 9.18327 6.1923V8.4923H12.3997C12.6649 8.4923 12.9154 8.6173 13.0789 8.83127C13.2425 9.04525 13.301 9.32444 13.2376 9.58841L12.2178 13.8346C12.1228 14.2298 11.777 14.5077 11.3799 14.5077H9.18327V22.1154C9.18327 22.6039 8.79692 23 8.32033 23H4.24096C3.76436 23 3.37801 22.6039 3.37801 22.1154V14.5077H1.18143C0.704835 14.5077 0.318481 14.1116 0.318481 13.6231V9.37692C0.318481 8.88836 0.704835 8.4923 1.18143 8.4923H3.37801V6.1923C3.37801 4.55432 4.00302 2.98076 5.11965 1.81848ZM9.34017 1.76923C8.22093 1.76923 7.14482 2.2319 6.34932 3.05993C5.55337 3.88841 5.1039 5.01491 5.1039 6.1923V9.37692C5.1039 9.86548 4.71755 10.2615 4.24096 10.2615H2.04437V12.7385H4.24096C4.71755 12.7385 5.1039 13.1345 5.1039 13.6231V21.2308H7.45739V13.6231C7.45739 13.1345 7.84374 12.7385 8.32033 12.7385H10.7036L11.2985 10.2615H8.32033C7.84374 10.2615 7.45739 9.86548 7.45739 9.37692V6.1923C7.45739 5.68047 7.6526 5.18694 8.0042 4.82096C8.35624 4.45453 8.83654 4.24615 9.34017 4.24615H11.5368V1.76923H9.34017Z" fill="white"/>
</svg>
