<svg width="23" height="23" viewBox="0 0 23 23" fill="none" xmlns="http://www.w3.org/2000/svg">
<path fill-rule="evenodd" clip-rule="evenodd" d="M6.30331 1.76923C3.92035 1.76923 1.98858 3.74951 1.98858 6.1923V16.8077C1.98858 19.2505 3.92035 21.2308 6.30331 21.2308H16.6586C19.0416 21.2308 20.9734 19.2505 20.9734 16.8077V6.1923C20.9734 3.74951 19.0416 1.76923 16.6586 1.76923H6.30331ZM0.262695 6.1923C0.262695 2.77239 2.96717 0 6.30331 0H16.6586C19.9948 0 22.6992 2.77239 22.6992 6.1923V16.8077C22.6992 20.2276 19.9948 23 16.6586 23H6.30331C2.96717 23 0.262695 20.2276 0.262695 16.8077V6.1923ZM12.0068 8.12889C11.3245 8.02517 10.6277 8.14464 10.0155 8.47028C9.40329 8.79593 8.90682 9.31118 8.59672 9.94275C8.28663 10.5743 8.17869 11.29 8.28827 11.9881C8.39785 12.6862 8.71936 13.3311 9.20707 13.831C9.69479 14.331 10.3239 14.6606 11.0048 14.7729C11.6858 14.8852 12.384 14.7746 13.0001 14.4567C13.6162 14.1388 14.1188 13.6299 14.4365 13.0023C14.7542 12.3747 14.8707 11.6604 14.7695 10.961C14.6663 10.2476 14.342 9.58708 13.8445 9.0771C13.3471 8.56711 12.7028 8.23468 12.0068 8.12889ZM9.22062 6.89987C10.1551 6.40283 11.2186 6.22049 12.26 6.37879C13.3222 6.54026 14.3056 7.04767 15.0649 7.82606C15.8243 8.60445 16.3192 9.61256 16.4767 10.7015C16.6312 11.769 16.4533 12.8592 15.9684 13.8171C15.4836 14.7751 14.7164 15.5518 13.776 16.037C12.8357 16.5222 11.77 16.6911 10.7307 16.5197C9.69127 16.3482 8.73109 15.8452 7.98668 15.0821C7.24228 14.319 6.75155 13.3347 6.5843 12.2692C6.41705 11.2037 6.58179 10.1113 7.0551 9.14732C7.52841 8.18335 8.28617 7.39692 9.22062 6.89987ZM17.1765 4.77692C16.6999 4.77692 16.3135 5.17297 16.3135 5.66153C16.3135 6.15009 16.6999 6.54614 17.1765 6.54614H17.1874C17.664 6.54614 18.0503 6.15009 18.0503 5.66153C18.0503 5.17297 17.664 4.77692 17.1874 4.77692H17.1765Z" fill="white"/>
</svg>
