<svg width="24" height="23" viewBox="0 0 24 23" fill="none" xmlns="http://www.w3.org/2000/svg">
<path fill-rule="evenodd" clip-rule="evenodd" d="M1.72589 3.11943C1.72589 2.37374 2.31559 1.76923 3.04301 1.76923C3.77044 1.76923 4.36014 2.37374 4.36014 3.11943C4.36014 3.86513 3.77044 4.46963 3.04301 4.46963C2.31559 4.46963 1.72589 3.86513 1.72589 3.11943ZM3.04301 0C1.3624 0 0 1.39662 0 3.11943C0 4.84225 1.3624 6.23886 3.04301 6.23886C4.72362 6.23886 6.08603 4.84225 6.08603 3.11943C6.08603 1.39662 4.72362 0 3.04301 0ZM16.1234 8.47368C14.6177 8.47368 13.1737 9.08684 12.109 10.1783C11.0443 11.2697 10.4461 12.75 10.4461 14.2935V21.2308H13.0804V14.2935C13.0804 13.4662 13.401 12.6728 13.9717 12.0877C14.5423 11.5027 15.3163 11.1741 16.1234 11.1741C16.9305 11.1741 17.7045 11.5027 18.2751 12.0877C18.8458 12.6728 19.1664 13.4662 19.1664 14.2935V21.2308H21.8007V14.2935C21.8007 12.75 21.2025 11.2697 20.1378 10.1783C19.0731 9.08684 17.6291 8.47368 16.1234 8.47368ZM16.1234 6.70445C14.16 6.70445 12.2769 7.50401 10.8886 8.92724C9.50022 10.3505 8.72025 12.2808 8.72025 14.2935V22.1154C8.72025 22.6039 9.1066 23 9.58319 23H13.9433C14.4199 23 14.8063 22.6039 14.8063 22.1154V14.2935C14.8063 13.9354 14.945 13.592 15.1921 13.3388C15.4391 13.0856 15.7741 12.9433 16.1234 12.9433C16.4727 12.9433 16.8077 13.0856 17.0548 13.3388C17.3018 13.592 17.4405 13.9354 17.4405 14.2935V22.1154C17.4405 22.6039 17.8269 23 18.3035 23H22.6636C23.1402 23 23.5266 22.6039 23.5266 22.1154V14.2935C23.5266 12.2808 22.7466 10.3505 21.3582 8.92724C19.9699 7.50401 18.0868 6.70445 16.1234 6.70445ZM0 8.70647C0 8.21791 0.386353 7.82186 0.862944 7.82186H5.22308C5.69968 7.82186 6.08603 8.21791 6.08603 8.70647V22.1154C6.08603 22.6039 5.69968 23 5.22308 23H0.862944C0.386353 23 0 22.6039 0 22.1154V8.70647ZM1.72589 9.59108V21.2308H4.36014V9.59108H1.72589Z" fill="white"/>
</svg>
