<svg width="20" height="20" viewBox="0 0 20 20" fill="none" xmlns="http://www.w3.org/2000/svg">
<path d="M0.935877 18.9359C0.419006 18.419 0.419006 17.581 0.935877 17.0641L16.7418 1.25821C17.2587 0.741338 18.0967 0.741337 18.6135 1.25821C19.1304 1.77508 19.1304 2.61309 18.6135 3.12996L2.80763 18.9359C2.29076 19.4527 1.45275 19.4527 0.935877 18.9359Z" fill="#F3F3F3"/>
<path d="M19.0641 18.6135C19.581 18.0967 19.581 17.2587 19.0641 16.7418L3.25821 0.935881C2.74134 0.419011 1.90332 0.41901 1.38645 0.935881C0.869584 1.45275 0.869583 2.29076 1.38645 2.80763L17.1924 18.6135C17.7092 19.1304 18.5473 19.1304 19.0641 18.6135Z" fill="#F3F3F3"/>
</svg>
