<svg width="25" height="15" viewBox="0 0 25 15" fill="none" xmlns="http://www.w3.org/2000/svg">
<path fill-rule="evenodd" clip-rule="evenodd" d="M0 1.32353C0 0.592564 0.592564 0 1.32353 0H23.6765C24.4074 0 25 0.592564 25 1.32353C25 2.05449 24.4074 2.64706 23.6765 2.64706H1.32353C0.592565 2.64706 0 2.05449 0 1.32353ZM0 7.5C0 6.76903 0.592564 6.17647 1.32353 6.17647H23.6765C24.4074 6.17647 25 6.76903 25 7.5C25 8.23097 24.4074 8.82353 23.6765 8.82353H1.32353C0.592565 8.82353 0 8.23097 0 7.5ZM1.32353 12.3529C0.592564 12.3529 0 12.9455 0 13.6765C0 14.4074 0.592565 15 1.32353 15H23.6765C24.4074 15 25 14.4074 25 13.6765C25 12.9455 24.4074 12.3529 23.6765 12.3529H1.32353Z" fill="#F3F3F3"/>
</svg>
